<svg width="120" height="120" viewBox="0 0 120 120" fill="none" xmlns="http://www.w3.org/2000/svg">
<path d="M90.17 60.72V84.31H86.17V69.54L85.34 69.4C80.6285 68.6075 75.8576 68.2228 71.08 68.25C67.7762 68.2478 64.4747 68.4247 61.19 68.78V63.67H61.31L52.73 31.06L52.46 31.13V30.22L3.29 61.87V73.3H0V107.13H118.13V107H120V81.1L90.17 60.72ZM84.17 71.23V89.34L84.08 89.11C83.4846 89.3696 82.8168 89.4116 82.1935 89.2289C81.5702 89.0461 81.0309 88.65 80.67 88.11C80.2007 87.4125 80.0257 86.558 80.183 85.7322C80.3402 84.9064 80.8172 84.1761 81.51 83.7L83.32 82.4L81.15 81.91C79.6306 81.5643 78.0478 81.6155 76.5539 82.0586C75.06 82.5017 73.7052 83.3218 72.62 84.44C72.0454 85.0114 71.5045 85.6158 71 86.25C70.67 86.65 70.35 87.04 70 87.42C69.3273 88.2683 68.3973 88.8754 67.35 89.15C66.9413 89.2352 66.5161 89.1904 66.1341 89.0219C65.7521 88.8533 65.4325 88.5694 65.22 88.21C65.1061 87.8363 65.0943 87.4389 65.1858 87.0591C65.2772 86.6793 65.4686 86.3309 65.74 86.05L65.81 85.97C66.4538 85.1211 67.2679 84.416 68.2 83.9L70.11 83.28L68.46 82.13C67.4855 81.4476 66.3652 81.0019 65.1882 80.8283C64.0113 80.6547 62.81 80.758 61.68 81.13C60.2584 81.705 58.9961 82.614 58 83.78V71.23C62.3299 70.55 66.707 70.2157 71.09 70.23C75.4796 70.2146 79.8635 70.549 84.2 71.23H84.17ZM58.74 61.67H52.46V37.9L58.74 61.67ZM50.46 61.67H7.29L50.46 33.89V61.67ZM5.29 63.67H50.46V73.3H5.29V63.67ZM2 75.3H50.46V84.3H12.61V86.3H50.46V105.12H2V75.3ZM52.46 105.13V63.67H59.22V69C58.41 69.11 57.61 69.23 56.85 69.37L56.02 69.51V105.1L52.46 105.13ZM58.02 105.13V87.36C58.891 85.4445 60.4305 83.9121 62.35 83.05C63.5002 82.675 64.7398 82.675 65.89 83.05C65.3403 83.5468 64.8226 84.0778 64.34 84.64L64.28 84.72C63.7545 85.2838 63.3951 85.982 63.2415 86.7373C63.088 87.4926 63.1463 88.2757 63.41 89C63.788 89.7894 64.4206 90.4287 65.206 90.8151C65.9914 91.2014 66.8839 91.3123 67.74 91.13C69.2198 90.7866 70.5429 89.9597 71.5 88.78C71.88 88.38 72.22 87.96 72.57 87.53C73.0159 86.954 73.4933 86.4032 74 85.88C75.2894 84.5595 77.0272 83.7709 78.87 83.67C78.3391 84.4914 78.0651 85.4524 78.0829 86.4302C78.1007 87.4081 78.4096 88.3585 78.97 89.16C79.388 89.8398 79.9779 90.3975 80.6802 90.7767C81.3824 91.1559 82.1722 91.3433 82.97 91.32C83.388 91.313 83.8039 91.2593 84.21 91.16V105.16L58.02 105.13ZM86.2 86.31H118V105.13H86.2V86.31ZM92.2 84.31V64.5L118 82.15V84.31H92.2Z" fill="#241F21"/>
</svg>
